PathFileType	4	(X/Y/Z)	Patient4_TMGait_0pt5_02_left_11.trc.trc
DataRate	CameraRate	NumFrames	NumMarkers	Units	OrigDataRate	OrigDataStartFrame	OrigNumFrames
76.086956521739	76.086956521739	6	33	mm	76.086956521739	1	       141
Frame#	Time	Sacral			L.Shoulder			Chest			R.Shoulder			Neck			R.ASIS			L.ASIS			R.Thigh.Superior			R.Thigh.Lateral			R.Thigh.Inferior			R.Patella			L.Thigh.Superior			L.Thigh.Lateral			L.Thigh.Inferior			L.Patella			L.Shank.Superior			L.Shank.Lateral			L.Shank.Inferior			R.Shank.Superior			R.Shank.Lateral			R.Shank.Inferior			R.Heel			R.Midfoot.Superior			R.Midfoot.Lateral			R.Toe			L.Heel			L.Midfoot.Lateral			L.Midfoot.Superior			L.Toe			L.Elbow			L.Wrist			R.Elbow			R.Wrist			
		X1	Y1	Z1	X2	Y2	Z2	X3	Y3	Z3	X4	Y4	Z4	X5	Y5	Z5	X6	Y6	Z6	X7	Y7	Z7	X8	Y8	Z8	X9	Y9	Z9	X10	Y10	Z10	X11	Y11	Z11	X12	Y12	Z12	X13	Y13	Z13	X14	Y14	Z14	X15	Y15	Z15	X16	Y16	Z16	X17	Y17	Z17	X18	Y18	Z18	X19	Y19	Z19	X20	Y20	Z20	X21	Y21	Z21	X22	Y22	Z22	X23	Y23	Z23	X24	Y24	Z24	X25	Y25	Z25	X26	Y26	Z26	X27	Y27	Z27	X28	Y28	Z28	X29	Y29	Z29	X30	Y30	Z30	X31	Y31	Z31	X32	Y32	Z32	X33	Y33	Z33	

1	13.730000000000	617.105574353777	1012.201109929465	525.541208292390	790.100611813720	1439.227254990451	342.040773502891	899.075306528704	1365.733130026499	497.441359350413	825.430134749959	1438.777073269116	676.655584363724	797.931858811721	1498.556637547038	493.786145259291	846.227444684458	941.889483755345	633.559585179411	822.490943153797	963.751839423858	360.746029888969	882.968933440501	740.325791421290	600.951350063402	797.960413829720	633.688142172923	657.003725353430	871.276570324344	580.045194364970	574.006465730899	867.901179362035	491.406169701450	575.508843242304	902.912663454500	777.942338619227	389.115168068401	853.862901852495	653.230549549335	312.766928227420	956.081996681979	588.593476402522	372.123559971876	968.312180782766	499.755162434262	366.191289766000	905.895756333821	430.557884707255	359.383695952606	768.124753323052	378.103060111599	309.694536816009	763.529794406615	248.951319392629	365.788386873785	838.033650422011	404.404586326825	580.653917319467	766.497277498371	301.601032666546	642.442456855997	801.197432358363	207.285997631160	574.568912334050	659.007639824064	45.713267004432	544.804115927091	832.778423903730	96.949134790181	575.754181548674	744.402751900030	37.117890481386	616.445045207715	952.542029356471	39.875274462573	600.129802142947	575.599242378037	170.402770113588	401.595119482720	637.382721941530	134.493939398882	319.243487713435	741.953034896910	146.659194329924	342.462149214870	826.672718013115	41.707778483789	307.941603352329	739.753533710333	1085.075089910042	230.660806530685	778.134663402625	828.684531286466	214.283660355635	845.515742585492	1101.938002374071	814.827344484618	1057.885498192885	958.432782894615	772.382039314196	
2	13.743142857143	615.706781524854	1012.998070078677	527.208204617315	788.692042717193	1439.448106563897	343.021437356046	898.878816286344	1365.539960191065	497.248197043022	827.406361545718	1439.038828790021	677.142268780599	798.098850771257	1498.658528986256	494.635153046106	845.444409851630	941.882078492722	633.707137039556	820.142804157028	964.427407263812	361.016273680944	879.629788469965	739.629612456285	600.297341601500	794.380247313274	633.536966592725	657.230947101359	866.469919518227	579.413241213494	573.670476579874	862.567247907003	490.926178273594	575.399688212843	901.801453866077	780.231253790318	389.502668253192	853.844318266251	655.004658219097	313.062854293060	956.164292093822	591.251578940116	372.791290110061	970.070568186899	503.986752882644	366.828570889411	911.649358981846	433.378417667544	359.206716673590	778.383366828312	373.014432786544	308.766479442901	782.252247387585	244.101233372814	364.154878600423	832.384196810379	404.061888132331	580.666594127431	760.522395313961	301.520036631031	642.468590988864	794.752165181702	207.102023998114	574.562162967560	652.024182432199	45.748098752403	544.881794892277	825.767077247805	96.935993946071	575.809387080961	737.418449204102	37.157777289467	616.540291140608	945.523489024667	39.824244750840	600.190085678776	601.268710594411	153.551826923140	399.414192637016	664.680594605417	122.653251848185	316.813754059390	767.470352102969	141.558993418582	340.149576703393	858.414098124389	43.540316389850	304.899221012712	730.157015893259	1087.318351848607	230.927875356740	760.360000498160	830.327317053825	214.365641328992	855.889798610961	1104.035007522856	815.575061572427	1074.469268930517	976.018940229347	768.405939426814	
3	13.756285714286	614.309252137341	1013.762201556802	528.831555718969	787.314973307268	1439.649104383789	343.985664881518	898.687038990374	1365.303388151399	497.044726289150	829.357919791251	1439.232308847232	677.610766094172	798.274144331400	1498.720834221902	495.473789810753	844.625060452272	941.828117922340	633.821994907658	817.810188361657	965.043361756587	361.245105290181	876.331296662503	738.924838364313	599.667028091118	790.841636823783	633.362132226055	657.450555004209	861.745916139351	578.771051378629	573.347586522531	857.315372058884	490.429626183637	575.292246952463	900.574711579098	782.355748902833	389.876075249760	853.643679123389	656.656277485326	313.311842987849	955.990690376065	593.721825394614	373.484579893304	971.595371129697	508.102889765522	367.478063549315	917.201136937293	436.165246103256	359.053942534558	788.686660359142	367.921473621411	307.763296417271	800.986277365274	239.415166606110	362.562415192953	826.809432924927	403.698728982343	580.672352751696	754.615690638427	301.423403462971	642.490716854885	788.360798724151	206.900414625227	574.547706589344	645.083215614831	45.776735760376	544.954528374879	818.796966031963	96.919496868194	575.855553119051	730.479245161595	37.192925305883	616.632204197785	938.549813800270	39.774774475041	600.247330931263	627.167774650880	136.952528005603	397.150924501892	692.225058732805	111.084195112545	314.401724969163	793.072005186453	136.720792356841	337.954180565645	890.162451173046	45.748868117097	302.171051198137	720.635261870366	1089.575531187220	231.199745818014	742.874360071561	832.021715142586	214.511272671467	866.182018433004	1106.072624598048	816.232878111861	1090.682613790728	993.563870576692	764.329519424239	
4	13.769428571429	612.917461122030	1014.458363298916	530.359585965366	786.001067561837	1439.809605125693	344.906387855589	898.500341961385	1364.987342871380	496.817883186265	831.246545211517	1439.300234978310	678.034975703234	798.460991969656	1498.708371534806	496.280456843321	843.748305240764	941.688846260935	633.869893706733	815.512500732003	965.544813466266	361.393053374129	873.119352671471	738.202421166095	599.070899806263	787.389916607022	633.141481249443	657.646150599844	857.180462659957	578.108177758766	573.039012551059	852.218211420454	489.898785206869	575.175807421310	899.136291086245	784.164937324681	390.216674675727	853.122157994627	658.079899919682	313.464508826219	955.364832611816	595.838886487783	374.203906539796	972.682950196198	511.980064796390	368.138847041546	922.351565990432	438.881416310885	358.931193287010	798.994565259679	362.876201827362	306.648963584610	819.623687542708	235.093823299247	361.050628557961	821.375964257932	403.295786449875	580.657176134098	748.838098954234	301.296292736801	642.499111832609	782.069741426623	206.664670355946	574.515265320443	638.220440758272	45.792127974659	545.018373390122	811.902665340917	96.895683672312	575.883712039757	723.620528112209	37.215546935397	616.712590547359	931.659207221523	39.729132079723	600.298660716093	653.332253415016	120.979806456337	394.795842243831	720.037582025505	100.126807263617	312.062512767673	818.664861137004	132.425823324006	335.975001868355	921.704279523403	48.652788292483	299.997351802752	711.295820144809	1091.844997101152	231.492069888043	725.986690904468	833.800572203814	214.783933523894	876.284442871698	1107.995516897081	816.680741884363	1106.106124395780	1010.981886410520	760.051542039569	
5	13.782571428571	611.533970234187	1015.055392256282	531.751740032531	784.775427272862	1439.911570673358	345.758754372805	898.316974010957	1364.562830707896	496.555795041759	833.037169073225	1439.198029593806	678.391200348014	798.660896958929	1498.592743438419	497.034472557679	842.804503811372	941.437215352330	633.822653513139	813.260048434289	965.885610237640	361.428169397202	870.028734989115	737.452502642870	598.514581556485	784.057098535058	632.855960296952	657.802021151585	852.825270502064	577.412722244026	572.742091258655	847.322902088754	489.317217957339	575.038589449153	897.401380398653	785.536025014120	390.506833488106	852.177967015686	659.197084949250	313.469559042839	954.144237560663	597.479488123140	374.935624780420	973.179906144518	515.525919480201	368.801114530670	926.950794213603	441.507915865605	358.836854115338	809.284899198769	357.943865080325	305.398591209058	838.076030127656	231.329503528225	359.659376274612	816.122170918586	402.834887819817	580.606218241649	743.223309047097	301.126254577448	642.484019275211	775.897886571766	206.380952858867	574.455179892150	631.444285448237	45.787557478796	545.071122711213	805.090033920840	96.861132290348	575.886254267813	716.850150746315	37.221185804947	616.777307526073	924.861383336549	39.689520619212	600.341766270702	679.783825451997	105.989080295140	392.361119491340	748.133671162289	90.092774776846	309.863575641623	844.170872733509	128.930640446012	334.305421324028	952.858065160865	52.528599792179	298.598010929593	702.216959907776	1094.124534584892	231.825726057615	709.911746967543	835.687169897853	215.236438994999	886.128549749207	1109.763181918818	816.805559349113	1120.410294515947	1028.229601406858	755.473978871291	
6	13.795714285714	610.161928861211	1015.528532844674	532.979615711448	783.655386765349	1439.941453566752	346.520239349818	898.133108467332	1364.012754195798	496.248829125140	834.697860344778	1438.900161806969	678.659194922612	798.872323575649	1498.356308382537	497.716004754895	841.797961485674	941.060693428545	633.661073964219	811.057730318666	966.033600750493	361.329480339816	867.084201025753	736.666783726116	597.997306782117	780.863558238441	632.492508756157	657.903816499906	848.707910895559	576.673991317566	572.449852924243	842.652476283011	488.672412481279	574.868239260538	895.312703452667	786.387697632850	390.730616890171	850.763458538024	659.964325083495	313.280461332843	952.264208406043	598.575030923649	375.650368853235	973.001749391557	518.681848864024	369.445243923152	930.906876237865	444.038941839332	358.760746127386	819.526887835566	353.206120771727	304.008016026077	856.239919390930	228.289292162647	358.425766705580	811.061487754079	402.301992551017	580.505045668147	737.782318466881	300.905121107353	642.436475835072	769.843925499991	206.040292646227	574.359555744586	624.745345711420	45.757856256447	545.112410918754	798.346590454512	96.813429457673	575.857835907949	710.158104052117	37.208973289886	616.826385022734	918.147192013040	39.657913447964	600.375218219922	706.461276559394	92.305914426766	389.890681174136	776.447276810149	81.247158047585	307.883270465353	869.472996997704	126.439953174125	333.021475714425	983.418588547380	57.559913546129	298.137269795326	693.457574463587	1096.406250652578	232.224067957676	694.777742421398	837.687890979924	215.904671662202	895.672112427718	1111.351884035252	816.510544571796	1133.362245088920	1045.276824812511	750.520517023008	
